<svg width="30" height="30" viewBox="0 0 30 30" fill="none" xmlns="http://www.w3.org/2000/svg">
<path d="M26.9639 20.9011L20.1954 14.1326L22.1101 12.2179L17.5368 7.64453L15.6221 9.55923L8.85357 2.79071L3.08508 8.5592L9.85361 15.3277L4.04853 21.1328V25.7061H8.62186L14.4269 19.901L21.1955 26.6696L26.9639 20.9011V20.9011ZM11.5854 13.596L6.53642 8.5592L8.85357 6.24205L10.4024 7.79088L8.95114 9.24215L10.6707 10.9617L12.122 9.51045L13.8903 11.2788L11.5854 13.596V13.596ZM16.1587 18.1693L18.4758 15.8521L20.2442 17.6205L18.7929 19.0718L20.5125 20.7913L21.9638 19.3401L23.5126 20.8889L21.1955 23.206L16.1587 18.1693V18.1693ZM18.8454 6.34327L21.9406 3.24682L26.5115 7.81771L23.4163 10.9142L18.8454 6.34327Z" fill="#F9995D"/>
</svg>
