<svg width="28" height="28" viewBox="0 0 28 28" fill="none" xmlns="http://www.w3.org/2000/svg">
<path d="M25.2995 8.85191C25.9463 8.85191 26.5667 9.10889 27.0242 9.56631C27.4816 10.0237 27.7386 10.6441 27.7386 11.291V16.1692C27.7386 16.8161 27.4816 17.4365 27.0242 17.8939C26.5667 18.3514 25.9463 18.6083 25.2995 18.6083H24.0043C23.707 20.9661 22.5594 23.1343 20.777 24.7061C18.9946 26.2779 16.6999 27.1452 14.3235 27.1452V24.7061C16.2642 24.7061 18.1253 23.9352 19.4976 22.5629C20.8699 21.1907 21.6408 19.3295 21.6408 17.3888V10.0715C21.6408 8.13079 20.8699 6.2696 19.4976 4.89733C18.1253 3.52507 16.2642 2.75414 14.3235 2.75414C12.3828 2.75414 10.5216 3.52507 9.14935 4.89733C7.77708 6.2696 7.00615 8.13079 7.00615 10.0715V18.6083H3.34749C2.7006 18.6083 2.08021 18.3514 1.62278 17.8939C1.16536 17.4365 0.908386 16.8161 0.908386 16.1692V11.291C0.908386 10.6441 1.16536 10.0237 1.62278 9.56631C2.08021 9.10889 2.7006 8.85191 3.34749 8.85191H4.64266C4.94027 6.49438 6.08793 4.32648 7.8703 2.75496C9.65267 1.18345 11.9472 0.316345 14.3235 0.316345C16.6997 0.316345 18.9943 1.18345 20.7767 2.75496C22.559 4.32648 23.7067 6.49438 24.0043 8.85191H25.2995ZM9.15257 18.3461L10.4453 16.2778C11.6076 17.0059 12.9519 17.391 14.3235 17.3888C15.695 17.391 17.0393 17.0059 18.2017 16.2778L19.4944 18.3461C17.9446 19.3171 16.1522 19.8307 14.3235 19.8279C12.4947 19.8307 10.7023 19.3171 9.15257 18.3461Z" fill="#F9995D"/>
</svg>
